<svg xmlns="http://www.w3.org/2000/svg" viewBox="0 0 336 112"><defs><style>.cls-1{fill:#cc2727;}.cls-2{fill:#fff;}</style></defs><g id="Capa_2" data-name="Capa 2"><g id="Capa_1-2" data-name="Capa 1"><path class="cls-1" d="M277.2,112H58.8C26.33,112,0,86.93,0,56H0C0,25.07,26.33,0,58.8,0H277.2C309.67,0,336,25.07,336,56h0C336,86.93,309.67,112,277.2,112Z"/><path class="cls-2" d="M108.05,42.22a.76.76,0,0,1,.72-.64h.64a.88.88,0,0,1,.68.4l9.28,17.28h.08L128.72,42a.88.88,0,0,1,.68-.4H130a.76.76,0,0,1,.72.64l4.52,26.88a.73.73,0,0,1-.76.88H129.8a.81.81,0,0,1-.76-.64L127.24,57h-.08l-6.72,13a.92.92,0,0,1-.68.44H119a.85.85,0,0,1-.67-.44l-6.76-13h-.08l-1.76,12.36A.78.78,0,0,1,109,70h-4.72a.73.73,0,0,1-.76-.88Z"/><path class="cls-2" d="M139.53,52.38a.85.85,0,0,1,.84-.88h4.36a.86.86,0,0,1,.88.88V61.5c0,2.08.6,3.2,2.48,3.2s2.52-1.24,2.52-2.88V52.38c0-.76.56-.88,1-.88h4.19a.86.86,0,0,1,.88.88V69.1a.88.88,0,0,1-.88.88H154a1.09,1.09,0,0,1-.88-.64l-.63-1.72a8.2,8.2,0,0,1-5.84,2.8c-5.4,0-7.08-3.56-7.08-8.8Z"/><path class="cls-2" d="M162.17,52.38a.86.86,0,0,1,.88-.88H165a.81.81,0,0,1,.84.56l.84,2a5.13,5.13,0,0,1,4.6-3,6,6,0,0,1,3.59,1,.72.72,0,0,1,.12,1l-1.84,3.64a.78.78,0,0,1-1,.44,5,5,0,0,0-1.39-.28,2.39,2.39,0,0,0-2.44,2.56V69.1c0,.56-.32.88-1,.88h-4.2a.89.89,0,0,1-.88-.88Z"/><path class="cls-2" d="M186.65,51.1a8.62,8.62,0,0,1,6.91,3.24.9.9,0,0,1-.23,1.32l-2.6,2.52a.8.8,0,0,1-1-.08,4.31,4.31,0,0,0-2.84-1.32,4,4,0,0,0-3.92,4,3.87,3.87,0,0,0,3.84,4,4.14,4.14,0,0,0,3.31-1.52c.33-.4.8-.48,1-.16l2.6,2.24c.4.4.64.84.32,1.32a8.3,8.3,0,0,1-7.43,3.84,9.66,9.66,0,1,1,0-19.32Z"/><path class="cls-2" d="M197.73,45.5a3.46,3.46,0,1,1,3.44,3.44A3.44,3.44,0,0,1,197.73,45.5Zm.44,6.88a.86.86,0,0,1,.88-.88h4.32a.86.86,0,0,1,.88.88V69.1a.89.89,0,0,1-.88.88h-4.32a.89.89,0,0,1-.88-.88Z"/><path class="cls-2" d="M215.45,58.18a8.73,8.73,0,0,1,3.63.8c0-1.8-.4-2.84-2.56-2.84a19.88,19.88,0,0,0-4.63.64c-.72.24-1-.28-1.12-1L210.33,53a1,1,0,0,1,.72-1.28,33.71,33.71,0,0,1,6.16-.6c5.71,0,7.71,2.32,7.71,7.8V69.1A.92.92,0,0,1,224,70h-2a.85.85,0,0,1-.84-.6l-.6-1.24a7.88,7.88,0,0,1-5.6,2.28c-3.63,0-6.39-2.4-6.39-6.08S211.25,58.18,215.45,58.18Zm1.19,7.76a2.08,2.08,0,0,0,2.08-2,2.11,2.11,0,0,0-2.08-2,2.07,2.07,0,0,0-2,2A2,2,0,0,0,216.64,65.94Z"/><path class="cls-2" d="M230.65,42.74a.75.75,0,0,1,.72-.76h9.75a14,14,0,1,1,0,28h-9.75a.75.75,0,0,1-.72-.76Zm10.43,21.32c4.52,0,7.44-3.56,7.44-8.12s-2.92-8.08-7.44-8.08h-4.19v16.2Z"/><path class="cls-2" d="M268.21,51.1A8.6,8.6,0,0,1,277,59.74c0,.28,0,.92-.08,1.2a.9.9,0,0,1-.88.8H264.61c0,1.44,1.32,3.2,3.84,3.2A7,7,0,0,0,272,63.78a.76.76,0,0,1,1.16,0l2,2.68a1,1,0,0,1,0,1.32,9.25,9.25,0,0,1-6.83,2.64,9.35,9.35,0,0,1-9.68-9.68A9.58,9.58,0,0,1,268.21,51.1Zm2.51,7.12a2.51,2.51,0,0,0-2.67-2.28,2.74,2.74,0,0,0-2.76,2.28Z"/><path class="cls-2" d="M279,52.78a.87.87,0,0,1,.8-1.28h4.36A.89.89,0,0,1,285,52l3.16,7.48h.12L291.57,52c.23-.56.6-.52,1.23-.52h3.84a.84.84,0,0,1,.8,1.28l-8.35,17.16a1.06,1.06,0,0,1-.8.48h-.24a1.06,1.06,0,0,1-.76-.48Z"/><circle class="cls-2" cx="58.43" cy="56" r="36" transform="translate(-15.67 88.55) rotate(-67.5)"/><path class="cls-1" d="M47.16,43.25a2,2,0,0,0-2.82,0L33,54.61a2,2,0,0,0,0,2.82L44.34,68.79a2,2,0,0,0,1.41.58,2,2,0,0,0,1.41-.58,2,2,0,0,0,0-2.82L37.21,56l9.95-10A2,2,0,0,0,47.16,43.25Z"/><path class="cls-1" d="M64.67,42.3a2,2,0,0,0-2.64,1L51.2,67.05a2,2,0,0,0-.05,1.52,2,2,0,0,0,3.68.13L65.65,44.94a2,2,0,0,0-1-2.64Z"/><path class="cls-1" d="M83.87,54.61,72.51,43.25a2,2,0,0,0-2.81,0,2,2,0,0,0,0,2.82l10,10L69.7,66a2,2,0,0,0,2.81,2.82L83.87,57.43A2,2,0,0,0,83.87,54.61Z"/></g></g></svg>