<svg xmlns="http://www.w3.org/2000/svg" viewBox="0 0 275.15 72"><defs><style>.cls-1{fill:#cc2727;}.cls-2{fill:#fff;}</style></defs><g id="Capa_2" data-name="Capa 2"><g id="Capa_1-2" data-name="Capa 1"><path class="cls-1" d="M85.62,22.22a.76.76,0,0,1,.72-.64H87a.88.88,0,0,1,.68.4l9.28,17.28H97L106.3,22a.88.88,0,0,1,.68-.4h.64a.76.76,0,0,1,.72.64l4.52,26.88a.74.74,0,0,1-.77.88h-4.71a.81.81,0,0,1-.76-.64L104.82,37h-.08L98,49.94a.94.94,0,0,1-.68.44h-.72a.87.87,0,0,1-.68-.44L89.18,37H89.1L87.34,49.34a.78.78,0,0,1-.76.64H81.86a.73.73,0,0,1-.76-.88Z"/><path class="cls-1" d="M117.1,32.38a.85.85,0,0,1,.84-.88h4.36a.86.86,0,0,1,.88.88V41.5c0,2.08.6,3.2,2.48,3.2s2.52-1.24,2.52-2.88V32.38c0-.76.56-.88,1-.88h4.2a.86.86,0,0,1,.88.88V49.1a.89.89,0,0,1-.88.88h-1.84a1.06,1.06,0,0,1-.88-.64L130,47.62a8.2,8.2,0,0,1-5.84,2.8c-5.4,0-7.08-3.56-7.08-8.8Z"/><path class="cls-1" d="M139.74,32.38a.86.86,0,0,1,.88-.88h1.92a.81.81,0,0,1,.84.56l.84,2a5.13,5.13,0,0,1,4.6-3,6.07,6.07,0,0,1,3.6,1,.74.74,0,0,1,.12,1L150.7,36.7a.78.78,0,0,1-1,.44,5.12,5.12,0,0,0-1.4-.28,2.39,2.39,0,0,0-2.44,2.56V49.1c0,.56-.32.88-1,.88h-4.2a.89.89,0,0,1-.88-.88Z"/><path class="cls-1" d="M164.22,31.1a8.64,8.64,0,0,1,6.92,3.24.9.9,0,0,1-.24,1.32l-2.6,2.52a.8.8,0,0,1-1-.08,4.31,4.31,0,0,0-2.84-1.32,4,4,0,0,0-3.92,4,3.87,3.87,0,0,0,3.84,4,4.17,4.17,0,0,0,3.32-1.52c.32-.4.8-.48,1-.16l2.6,2.24c.4.4.64.84.32,1.32a8.33,8.33,0,0,1-7.44,3.84,9.66,9.66,0,1,1,0-19.32Z"/><path class="cls-1" d="M175.3,25.5a3.46,3.46,0,1,1,3.44,3.44A3.44,3.44,0,0,1,175.3,25.5Zm.44,6.88a.86.86,0,0,1,.88-.88h4.32a.86.86,0,0,1,.88.88V49.1a.89.89,0,0,1-.88.88h-4.32a.89.89,0,0,1-.88-.88Z"/><path class="cls-1" d="M193,38.18a8.75,8.75,0,0,1,3.64.8c0-1.8-.4-2.84-2.56-2.84a20,20,0,0,0-4.64.64c-.72.24-1-.28-1.12-1L187.9,33a1,1,0,0,1,.72-1.28,33.71,33.71,0,0,1,6.16-.6c5.72,0,7.72,2.32,7.72,7.8V49.1a.92.92,0,0,1-.88.88h-2a.85.85,0,0,1-.84-.6l-.6-1.24a7.88,7.88,0,0,1-5.6,2.28c-3.64,0-6.4-2.4-6.4-6.08S188.82,38.18,193,38.18Zm1.2,7.76a2.08,2.08,0,0,0,2.08-2,2.11,2.11,0,0,0-2.08-2,2.08,2.08,0,0,0-2,2A2,2,0,0,0,194.22,45.94Z"/><path class="cls-1" d="M208.22,22.74a.75.75,0,0,1,.72-.76h9.76a14,14,0,1,1,0,28h-9.76a.75.75,0,0,1-.72-.76Zm10.44,21.32c4.52,0,7.44-3.56,7.44-8.12s-2.92-8.08-7.44-8.08h-4.2v16.2Z"/><path class="cls-1" d="M245.78,31.1a8.6,8.6,0,0,1,8.76,8.64c0,.28,0,.92-.08,1.2a.9.9,0,0,1-.88.8h-11.4c0,1.44,1.32,3.2,3.84,3.2a7.08,7.08,0,0,0,3.52-1.16.76.76,0,0,1,1.16,0l2,2.68a1,1,0,0,1,0,1.32,9.82,9.82,0,0,1-16.52-7A9.58,9.58,0,0,1,245.78,31.1Zm2.52,7.12a2.52,2.52,0,0,0-2.68-2.28,2.74,2.74,0,0,0-2.76,2.28Z"/><path class="cls-1" d="M256.54,32.78a.87.87,0,0,1,.8-1.28h4.36a.89.89,0,0,1,.84.52l3.16,7.48h.12L269.14,32c.24-.56.6-.52,1.24-.52h3.84a.84.84,0,0,1,.8,1.28l-8.36,17.16a1.06,1.06,0,0,1-.8.48h-.24a1.06,1.06,0,0,1-.76-.48Z"/><circle class="cls-1" cx="36" cy="36" r="36" transform="translate(-11.04 55.48) rotate(-67.5)"/><path class="cls-2" d="M24.73,23.25a2,2,0,0,0-2.81,0L10.56,34.61a2,2,0,0,0,0,2.82L21.92,48.79a2,2,0,0,0,1.4.58,1.94,1.94,0,0,0,1.41-.58,2,2,0,0,0,0-2.82L14.78,36l10-10A2,2,0,0,0,24.73,23.25Z"/><path class="cls-2" d="M42.24,22.3a2,2,0,0,0-2.64,1L28.78,47.05a2,2,0,0,0,1,2.64,2,2,0,0,0,.82.18A2,2,0,0,0,32.4,48.7L43.22,24.94a2,2,0,0,0-1-2.64Z"/><path class="cls-2" d="M61.45,34.61,50.09,23.25a2,2,0,0,0-2.82,0,2,2,0,0,0,0,2.82l9.95,10L47.27,46a2,2,0,0,0,0,2.82,2,2,0,0,0,2.82,0L61.45,37.43A2,2,0,0,0,61.45,34.61Z"/></g></g></svg>