<svg xmlns="http://www.w3.org/2000/svg" viewBox="0 0 124.87 123.23"><defs><style>.cls-1{fill:#cc2727;}.cls-2{fill:#fff;}</style></defs><g id="Capa_2" data-name="Capa 2"><g id="Capa_1-2" data-name="Capa 1"><rect class="cls-1" width="124.87" height="123.23" rx="61.61"/><path class="cls-2" d="M52.8,51.08a2.09,2.09,0,0,0-.63-1.51,2.19,2.19,0,0,0-3,0L38.59,60.12a2.14,2.14,0,0,0,0,3L49.14,73.7a2.14,2.14,0,0,0,3.66-1.51,2.09,2.09,0,0,0-.63-1.51l-9-9,9-9A2.13,2.13,0,0,0,52.8,51.08Z"/><path class="cls-2" d="M68.35,48.62a2.19,2.19,0,0,0-2.83,1.07L55.46,71.76a2.15,2.15,0,0,0,1.07,2.84,2.08,2.08,0,0,0,.88.19,2.15,2.15,0,0,0,2-1.25l10-22.08A2.15,2.15,0,0,0,68.35,48.62Z"/><path class="cls-2" d="M86.29,60.12,75.73,49.57a2.19,2.19,0,0,0-3,0,2.13,2.13,0,0,0-.63,1.51,2.18,2.18,0,0,0,.63,1.52l9,9-9,9a2.12,2.12,0,0,0,0,3,2.14,2.14,0,0,0,3,0L86.28,63.15A2.15,2.15,0,0,0,86.29,60.12Z"/></g></g></svg>