<svg xmlns="http://www.w3.org/2000/svg" viewBox="0 0 124.87 123.23"><defs><style>.cls-1{fill:#cc2727;}.cls-2{fill:#fff;}</style></defs><g id="Capa_2" data-name="Capa 2"><g id="Capa_1-2" data-name="Capa 1"><rect class="cls-1" width="124.87" height="123.23" rx="61.61"/><circle class="cls-2" cx="62.44" cy="61.61" r="36" transform="translate(-18.38 95.72) rotate(-67.5)"/><path class="cls-1" d="M51.17,48.87a2,2,0,0,0-2.82,0L37,60.23A2,2,0,0,0,37,63L48.35,74.4a2,2,0,1,0,2.82-2.81l-10-10,10-10A2,2,0,0,0,51.17,48.87Z"/><path class="cls-1" d="M68.67,47.92a2,2,0,0,0-2.63,1L55.21,72.66a2,2,0,0,0-.05,1.53,2,2,0,0,0,1,1.11,2,2,0,0,0,.82.18,2,2,0,0,0,1.82-1.17L69.66,50.55a2,2,0,0,0,0-1.52A1.92,1.92,0,0,0,68.67,47.92Z"/><path class="cls-1" d="M87.88,60.23,76.52,48.87a2,2,0,0,0-2.81,0,2,2,0,0,0,0,2.81l10,10-10,9.95a2,2,0,0,0,0,2.82,2,2,0,0,0,2.81,0L87.88,63A2,2,0,0,0,87.88,60.23Z"/></g></g></svg>